HIERARCHY
ROOT Hips
{
	OFFSET 0.000000 0.000000 0.000000
	CHANNELS 6 Xposition Yposition Zposition Zrotation Yrotation Xrotation 
	JOINT LHipJoint
	{
		OFFSET 0.000000 0.000000 0.000000
		CHANNELS 3 Zrotation Yrotation Xrotation
		JOINT LeftUpLeg
		{
			OFFSET 1.363060 -1.794630 0.839290
			CHANNELS 3 Zrotation Yrotation Xrotation
			JOINT LeftLeg
			{
				OFFSET 2.448110 -6.726130 0.000000
				CHANNELS 3 Zrotation Yrotation Xrotation
				JOINT LeftFoot
				{
					OFFSET 2.562200 -7.039590 0.000000
					CHANNELS 3 Zrotation Yrotation Xrotation
					JOINT LeftToeBase
					{
						OFFSET 0.157640 -0.433110 2.322550
						CHANNELS 3 Zrotation Yrotation Xrotation
						End Site
						{
							OFFSET 0.000000 0.000000 0.000000
						}
					}
				}
			}
		}
	}
	JOINT RHipJoint
	{
		OFFSET 0.000000 0.000000 0.000000
		CHANNELS 3 Zrotation Yrotation Xrotation
		JOINT RightUpLeg
		{
			OFFSET -1.305520 -1.794630 0.839290
			CHANNELS 3 Zrotation Yrotation Xrotation
			JOINT RightLeg
			{
				OFFSET -2.542530 -6.985550 0.000000
				CHANNELS 3 Zrotation Yrotation Xrotation
				JOINT RightFoot
				{
					OFFSET -2.568260 -7.056230 0.000000
					CHANNELS 3 Zrotation Yrotation Xrotation
					JOINT RightToeBase
					{
						OFFSET -0.164730 -0.452590 2.363150
						CHANNELS 3 Zrotation Yrotation Xrotation
						End Site
						{
							OFFSET 0.000000 0.000000 0.000000
						}
					}
				}
			}
		}
	}
	JOINT LowerBack
	{
		OFFSET 0.000000 0.000000 0.000000
		CHANNELS 3 Zrotation Yrotation Xrotation
		JOINT Spine
		{
			OFFSET 0.028270 2.035590 -0.193380
			CHANNELS 3 Zrotation Yrotation Xrotation
			JOINT Spine1
			{
				OFFSET 0.056720 2.048850 -0.042750
				CHANNELS 3 Zrotation Yrotation Xrotation
				JOINT Neck
				{
					OFFSET 0.000000 0.000000 0.000000
					CHANNELS 3 Zrotation Yrotation Xrotation
					JOINT Neck1
					{
						OFFSET -0.054170 1.746240 0.172020
						CHANNELS 3 Zrotation Yrotation Xrotation
						JOINT Head
						{
							OFFSET 0.104070 1.761360 -0.123970
							CHANNELS 3 Zrotation Yrotation Xrotation
							End Site
							{
								OFFSET 0.000000 0.000000 0.000000
							}
						}
					}
				}
				JOINT LeftShoulder
				{
					OFFSET 0.000000 0.000000 0.000000
					CHANNELS 3 Zrotation Yrotation Xrotation
					JOINT LeftArm
					{
						OFFSET 3.362410 1.200890 -0.311210
						CHANNELS 3 Zrotation Yrotation Xrotation
						JOINT LeftForeArm
						{
							OFFSET 4.983000 -0.000000 -0.000000
							CHANNELS 3 Zrotation Yrotation Xrotation
							JOINT LeftHand
							{
								OFFSET 3.483560 -0.000000 -0.000000
								CHANNELS 3 Zrotation Yrotation Xrotation
								JOINT LeftFingerBase
								{
									OFFSET 0.000000 0.000000 0.000000
									CHANNELS 3 Zrotation Yrotation Xrotation
									JOINT LeftHandIndex1
									{
										OFFSET 0.715260 -0.000000 -0.000000
										CHANNELS 3 Zrotation Yrotation Xrotation
										End Site
										{
											OFFSET 0.000000 0.000000 0.000000
										}
									}
								}
								JOINT LThumb
								{
									OFFSET 0.000000 0.000000 0.000000
									CHANNELS 3 Zrotation Yrotation Xrotation
									End Site
									{
										OFFSET 0.000000 0.000000 0.000000
									}
								}
							}
						}
					}
				}
				JOINT RightShoulder
				{
					OFFSET 0.000000 0.000000 0.000000
					CHANNELS 3 Zrotation Yrotation Xrotation
					JOINT RightArm
					{
						OFFSET -3.136600 1.374050 -0.404650
						CHANNELS 3 Zrotation Yrotation Xrotation
						JOINT RightForeArm
						{
							OFFSET -5.241900 -0.000000 -0.000000
							CHANNELS 3 Zrotation Yrotation Xrotation
							JOINT RightHand
							{
								OFFSET -3.444170 -0.000000 -0.000000
								CHANNELS 3 Zrotation Yrotation Xrotation
								JOINT RightFingerBase
								{
									OFFSET 0.000000 0.000000 0.000000
									CHANNELS 3 Zrotation Yrotation Xrotation
									JOINT RightHandIndex1
									{
										OFFSET -0.622530 -0.000000 -0.000000
										CHANNELS 3 Zrotation Yrotation Xrotation
										End Site
										{
											OFFSET 0.000000 0.000000 0.000000
										}
									}
								}
								JOINT RThumb
								{
									OFFSET 0.000000 0.000000 0.000000
									CHANNELS 3 Zrotation Yrotation Xrotation
									End Site
									{
										OFFSET 0.000000 0.000000 0.000000
									}
								}
							}
						}
					}
				}
			}
		}
	}
}
MOTION
Frames: 11
Frame Time: 0.008333
11.619312 15.427829 -5.988382 -91.977009 -86.926468 112.997880 0.805925 -5.617719 -7.450780 -17.081667 15.353857 -88.203131 8.416430 13.374147 44.077560 -1.635823 20.499528 36.023436 2.535000 -9.901200 -28.657400 0.276828 1.537525 0.029202 -8.408578 -35.751278 -21.876426 -11.084762 -16.509785 60.836744 -3.425076 9.169047 18.219548 -0.946700 6.196500 -17.355700 9.691915 4.479372 11.435777 -0.362179 5.607805 1.768980 -2.994260 3.519345 11.561911 0.488139 4.269601 -5.946455 -11.872536 5.480674 -14.092989 -4.366500 3.112100 -5.298300 -8.970162 0.222652 4.658482 -12.335446 42.008646 49.114462 1.779609 -13.558796 -1.621175 -3.016863 -4.001607 -45.986497 28.391034 -0.755724 -0.071600 -7.125000 0.000000 0.000000 5.362700 29.828600 -1.992600 11.339234 2.133255 1.147747 51.896845 -65.911860 80.794004 -19.128694 36.981719 -7.052007 1.549401 2.369897 0.307008 -20.516599 -22.714037 9.716800 7.125000 0.000000 0.000000 8.242600 -56.485400 -2.332100 
11.248706 15.302268 -5.970145 -63.191142 -85.646046 82.874259 0.394971 -5.561519 -7.460197 -20.128366 15.509666 -89.454223 8.375381 13.574065 43.931299 -1.583603 21.199152 36.756542 2.399300 -9.652500 -27.858700 0.194929 1.545775 0.329120 -9.685998 -34.745622 -15.901613 -10.872339 -16.684364 60.323509 -3.135302 7.522587 17.752599 -0.970400 6.271500 -17.574200 9.007099 5.015119 11.142613 -0.244283 6.299314 1.591311 -2.641056 3.867378 10.957440 0.176769 3.859534 -5.791423 -11.496025 4.897003 -14.179680 -4.202000 2.832100 -5.384200 -8.800390 0.069257 4.976474 -12.981671 43.037672 47.392635 1.603791 -13.309705 -1.553284 -3.005451 -3.862651 -45.120178 28.352345 -0.967101 -0.213900 -7.125000 0.000000 0.000000 5.227000 29.570300 -1.974100 11.210175 2.513990 0.247460 54.494386 -66.799540 76.815213 -17.477180 35.517720 -6.314846 1.529517 2.467805 -0.220230 -19.793056 -23.346507 9.617800 7.125000 0.000000 0.000000 9.330800 -57.058100 -2.773100 
10.875226 15.165432 -5.958650 -50.956242 -83.560530 69.182612 0.233802 -5.423329 -7.428788 -22.661874 15.705131 -90.138008 8.425493 13.833182 44.380622 -1.316908 21.076303 37.447240 1.956800 -8.775500 -25.095500 0.395884 1.696888 0.598576 -10.531367 -33.389468 -9.759296 -10.564542 -16.865481 59.578739 -2.793793 5.836339 16.911829 -0.992100 6.339100 -17.771600 8.463831 5.496919 10.858463 -0.131837 6.922193 1.395504 -2.215946 4.181281 10.244673 -0.297219 3.439350 -5.659044 -10.972928 4.304980 -14.249270 -3.954000 2.554300 -5.467900 -8.653615 -0.069652 5.275923 -13.790534 44.056375 44.996218 1.366749 -12.931662 -1.461130 -2.997691 -3.706617 -43.944968 28.277319 -1.174558 -0.346500 -7.125000 0.000000 0.000000 5.055600 29.327000 -1.938300 11.091846 2.878369 -0.621943 57.008137 -67.380402 72.784524 -15.883239 33.924386 -5.604924 1.528855 2.535082 -0.622478 -19.284057 -24.030859 9.622700 7.125000 0.000000 0.000000 10.212700 -57.693600 -3.195800 
10.498763 15.021412 -5.953676 -45.036875 -81.239641 61.726435 0.137672 -5.340902 -7.342014 -24.400289 15.933527 -90.187385 8.474909 14.102938 45.427343 -0.689151 19.297260 37.992715 1.529300 -7.807900 -22.132100 0.669149 1.869893 0.832993 -10.755274 -31.742251 -3.652377 -10.177310 -17.046209 58.631353 -2.375914 4.016352 15.762663 -0.976800 6.291600 -17.633000 7.918804 5.917306 10.514892 -0.058996 7.471623 1.175728 -1.809340 4.453497 9.467424 -0.779411 2.975874 -5.506151 -10.316494 3.670243 -14.333444 -3.646000 2.258700 -5.566200 -8.529458 -0.201472 5.547718 -14.552455 44.975315 42.298993 1.110660 -12.463892 -1.361193 -2.989777 -3.561582 -42.762270 28.178816 -1.360385 -0.461200 -7.125000 0.000000 0.000000 4.875500 29.113600 -1.893600 10.982217 3.208721 -1.438895 59.575564 -67.665211 68.712009 -14.389460 32.270153 -4.940912 1.548107 2.557561 -0.797233 -18.973726 -24.647802 9.685100 7.125000 0.000000 0.000000 10.840600 -58.258800 -3.543100 
10.119204 14.876839 -5.953123 -41.783811 -78.875218 56.919094 0.050837 -5.307273 -7.188436 -25.242050 16.167138 -89.655675 8.489918 14.374793 47.029005 0.129942 15.884447 37.859622 1.047100 -6.507300 -18.263800 0.936034 2.062570 1.003030 -10.247621 -29.899618 2.237296 -9.740976 -17.205386 57.534824 -1.846351 1.936932 14.371911 -0.884200 5.994200 -16.767500 7.233409 6.228941 10.028071 0.026835 7.873238 0.972280 -1.293362 4.627771 8.819124 -1.436052 2.522910 -5.608806 -9.536121 3.056575 -14.421794 -3.263900 1.972700 -5.631300 -8.446071 -0.304936 5.734489 -15.630952 45.846027 38.982054 0.831129 -11.923321 -1.249855 -2.965849 -3.430172 -41.622639 28.107789 -1.478779 -0.524300 -7.125000 0.000000 0.000000 4.722100 28.993400 -1.847100 10.933264 3.408633 -1.993386 61.504735 -67.203394 65.072184 -12.946828 30.604458 -4.327749 1.574170 2.544131 -0.695442 -18.757779 -25.001416 9.693700 7.125000 0.000000 0.000000 11.232800 -58.550700 -3.752400 
9.737877 14.737130 -5.952571 -39.704570 -76.499784 53.312568 -0.031209 -5.301301 -6.971075 -25.271212 16.302184 -88.666970 8.513165 14.669203 49.128214 0.883514 11.473591 36.370192 0.604500 -4.977000 -13.842900 1.186577 2.266586 1.112083 -9.006035 -28.035242 7.745278 -9.300495 -17.343529 56.397598 -1.184090 -0.455680 12.839889 -0.664700 5.213900 -14.519700 6.552823 6.501700 9.393617 0.043722 8.217366 0.753105 -0.888087 4.786044 8.216204 -1.907205 2.000830 -5.776226 -8.719897 2.373413 -14.520392 -2.883700 1.644400 -5.681900 -8.400424 -0.409825 5.869954 -16.557140 46.446599 35.569340 0.564310 -11.341937 -1.142114 -2.937748 -3.347451 -40.779369 28.083813 -1.522484 -0.534000 -7.125000 0.000000 0.000000 4.636700 28.973000 -1.815800 10.895281 3.607340 -2.487663 63.700819 -66.451509 61.128313 -11.584851 28.917047 -3.771061 1.617757 2.483594 -0.306960 -18.633637 -25.267557 9.708700 7.125000 0.000000 0.000000 11.455500 -58.735300 -3.878900 
9.355445 14.608031 -5.948149 -38.339540 -74.083531 50.469152 -0.114046 -5.289194 -6.727818 -24.548274 16.218413 -87.419727 8.714606 15.036462 51.627376 1.356882 7.457454 33.351085 0.261800 -3.291500 -9.091500 1.414518 2.480350 1.166474 -7.021169 -26.285769 12.714889 -8.912239 -17.485938 55.396872 -0.396740 -3.083842 11.122668 -0.388100 4.000600 -11.078400 5.913786 6.689934 8.634832 0.033616 8.446797 0.535298 -0.548489 4.888373 7.714556 -2.241874 1.451154 -6.040951 -7.939276 1.654286 -14.728742 -2.535900 1.293000 -5.750200 -8.402892 -0.517677 5.923398 -17.569066 46.797861 31.732810 0.309626 -10.727603 -1.033475 -2.905554 -3.300198 -40.130005 28.143194 -1.527859 -0.513200 -7.125000 0.000000 0.000000 4.636800 29.011500 -1.811600 10.892942 3.771677 -2.823696 65.830737 -65.176693 57.025637 -10.260807 27.208400 -3.271961 1.675156 2.393608 0.273524 -18.628395 -25.507668 9.771100 7.125000 0.000000 0.000000 11.515900 -58.896900 -3.944400 
8.978649 14.486338 -5.937649 -37.339143 -71.592179 48.078276 -0.198665 -5.257460 -6.490079 -23.154522 15.701173 -86.107852 9.246303 15.507702 54.429396 1.392063 5.124508 29.204296 0.073900 -1.753500 -4.825000 1.621489 2.697987 1.177152 -4.416348 -24.803925 16.943843 -8.654366 -17.676253 54.794861 0.462025 -5.754408 9.236032 -0.143000 2.437000 -6.714900 5.416715 6.795413 7.837088 -0.021509 8.570497 0.299579 -0.367736 4.947245 7.245840 -2.440298 0.873017 -6.344856 -7.177658 0.900298 -15.073471 -2.206800 0.924000 -5.853200 -8.455846 -0.646192 5.891076 -18.542465 46.831542 27.818835 0.106600 -10.157029 -0.938230 -2.865451 -3.297239 -39.840265 28.268238 -1.488633 -0.459200 -7.125000 0.000000 0.000000 4.712000 29.113400 -1.829700 10.908414 3.933805 -3.030891 68.068302 -63.448100 52.546974 -8.985394 25.492400 -2.842440 1.738184 2.282846 0.989466 -18.588358 -25.862925 9.847200 7.125000 0.000000 0.000000 11.668900 -59.148000 -4.068100 
8.614123 14.371940 -5.923059 -36.459862 -69.100337 45.953112 -0.280991 -5.211867 -6.265893 -21.296442 14.671272 -84.934804 10.099639 16.053681 57.423592 0.918840 4.897341 24.745483 0.007000 -0.541600 -1.488300 1.800065 2.913415 1.146325 -1.454053 -23.647624 20.196141 -8.611986 -17.961934 54.882287 1.300741 -8.199526 7.204033 -0.016200 0.821700 -2.258300 4.997428 6.837420 7.067232 -0.141682 8.617665 0.036351 -0.374798 4.973585 6.751573 -2.497441 0.267464 -6.546865 -6.454577 0.098109 -15.663937 -1.905200 0.537900 -6.056400 -8.562670 -0.804476 5.770080 -19.442671 46.524344 24.116989 -0.022276 -9.703524 -0.866542 -2.816784 -3.331741 -39.957047 28.416276 -1.437488 -0.395700 -7.125000 0.000000 0.000000 4.823900 29.232900 -1.859700 10.930932 4.106256 -3.107576 70.390277 -61.258528 47.673624 -7.755300 23.786281 -2.485497 1.823370 2.149886 1.853900 -18.785317 -26.373862 10.099300 7.125000 0.000000 0.000000 11.622300 -59.590900 -4.175100 
8.266397 14.266716 -5.907917 -35.353296 -66.720417 43.803582 -0.354355 -5.170658 -6.044421 -19.273008 13.156367 -84.016328 11.125322 16.615595 60.472335 0.042440 6.215833 20.701040 0.000000 0.023000 0.063300 1.943304 3.125456 1.071805 1.494658 -22.847861 22.306293 -8.862995 -18.380800 55.908343 2.019820 -10.172040 5.097893 -0.015200 -0.795700 2.186700 4.475965 6.830711 6.357527 -0.355350 8.608543 -0.250743 -0.555365 4.969449 6.196488 -2.388288 -0.366462 -6.520635 -5.774028 -0.762213 -16.568969 -1.635100 0.132300 -6.410000 -8.734952 -0.999778 5.556289 -20.247986 45.822273 20.723793 -0.104504 -9.349308 -0.812106 -2.773099 -3.376958 -40.278239 28.490059 -1.452705 -0.379300 -7.125000 0.000000 0.000000 4.883900 29.264100 -1.879300 10.952221 4.302420 -3.060057 72.784764 -58.565171 42.369695 -6.550231 22.085865 -2.197665 1.936123 1.990162 2.913076 -19.365493 -27.056322 10.619500 7.125000 0.000000 0.000000 11.212700 -60.276000 -4.209200 
7.938234 14.172655 -5.896421 -33.982318 -64.594686 41.605345 -0.415290 -5.142506 -5.816533 -17.319502 11.340751 -83.339631 12.166067 17.141335 63.425049 -0.974973 8.133634 17.414763 0.006300 0.514200 1.413100 2.041759 3.332130 0.952948 4.108378 -22.296171 23.212469 -9.451994 -18.934630 57.992942 2.524349 -11.445232 3.002968 -0.114100 -2.177800 5.997300 3.673539 6.791139 5.717047 -0.655680 8.564635 -0.539207 -0.815008 4.932454 5.601026 -2.193338 -0.995039 -6.256393 -5.111834 -1.635085 -17.776141 -1.377500 -0.270900 -6.915300 -8.982699 -1.238762 5.240764 -21.086116 44.727504 17.528405 -0.187163 -9.038583 -0.762786 -2.742576 -3.400950 -40.415290 28.384104 -1.521785 -0.401800 -7.125000 0.000000 0.000000 4.794900 29.221100 -1.849800 10.981437 4.516572 -2.880219 74.925027 -55.279561 36.830157 -5.324643 20.372022 -1.963956 2.065311 1.806701 4.291136 -20.310998 -27.810366 11.378100 7.125000 0.000000 0.000000 10.407100 -61.113200 -4.110100 
